<?xml version="1.0" encoding="utf-8"?>
<!-- Generator: Adobe Illustrator 20.0.0, SVG Export Plug-In . SVG Version: 6.00 Build 0)  -->
<svg version="1.1" id="Layer_1" xmlns="http://www.w3.org/2000/svg" xmlns:xlink="http://www.w3.org/1999/xlink" x="0px" y="0px"
	 viewBox="0 0 216 216" style="enable-background:new 0 0 216 216;" xml:space="preserve">
<style type="text/css">
	.st0{fill:#1D1D1B;}
</style>
<g>
	<path class="st0" d="M207.3,10.9c-14.1,9.6-29,17.4-44.9,23.7c-2,0.8-1.3,4.2,0.8,4.1c7.6-0.4,15.2-0.8,22.8-1.4c0,0,0,0.1,0,0.1
		c-13.9,10.3-26.7,22.9-39.6,34.3c-14.1,12.4-28.1,24.9-42,37.6c-17.3,15.7-34.7,31.4-51.7,47.5c-0.3-0.1-0.6-0.2-1-0.1
		c-4.7,0.6-8.9-0.8-13.1-0.8c-0.4-0.1-0.8-0.2-1.3-0.3c0,0,0,0-0.1,0l0,0c-0.2,0-0.4-0.1-0.5-0.1c-0.9-0.2-1.6,0.2-1.9,0.9
		c-1.2,0.3-2.4,0.8-3.6,1.6c-9.2,6.1-17.3,15.5-25.2,23.2c0,0-0.1,0.1-0.1,0.1c0,0,0,0,0,0c-0.9,0.2-1.2,1.1-0.9,1.9
		c1.1,2.9,6.2,3.8,8.9,4.3c2.5,0.5,4.9,0.6,7.3,0.3c0,2.1,0.2,4.3,0.2,6.4c0,2.9-0.2,5.8-0.5,8.7c-0.3,0.4-0.3,0.9,0,1.3
		c0.2,1.7,3,1.8,3.3-0.2c0-0.1,0-0.2,0-0.3c9.5-6.9,18.8-14.7,27.1-23c0.7-0.7,0.7-1.5,0.3-2.2c1.5-4.7,1.8-10.3,0.8-15.2
		c18.2-17,36.3-34.1,54.7-50.9c13.9-12.6,27.9-25.1,42-37.6c11.5-10.2,24-19.9,35.3-30.5c-0.4,4.9,0.4,9.7,2.5,14.6
		c0.8,1.9,3.5,1.5,4.2-0.3c6-15.3,12.6-30.5,19.7-45.3C211.9,11,208.8,9.9,207.3,10.9z"/>
	<path class="st0" d="M5.2,13.3c7.1,14.9,13.6,30,19.7,45.3c0.7,1.7,3.4,2.2,4.2,0.3c2.1-4.8,3-9.7,2.5-14.6
		c11.3,10.6,23.8,20.3,35.3,30.5c14.1,12.4,28.1,25,42,37.6c18.4,16.7,36.5,33.9,54.7,50.9c-1,4.9-0.7,10.4,0.8,15.2
		c-0.3,0.7-0.3,1.5,0.3,2.2c8.2,8.3,17.5,16.2,27.1,23c0,0.1,0,0.2,0,0.3c0.3,2,3.1,1.9,3.3,0.2c0.2-0.4,0.3-0.8,0-1.3
		c-0.3-2.9-0.5-5.8-0.5-8.7c0-2.1,0.3-4.3,0.2-6.4c2.4,0.2,4.9,0.1,7.3-0.3c2.7-0.5,7.8-1.4,8.9-4.3c0.3-0.8,0-1.7-0.9-1.9
		c0,0,0,0,0,0c0,0,0-0.1-0.1-0.1c-7.9-7.7-16-17.1-25.2-23.2c-1.2-0.8-2.4-1.3-3.6-1.6c-0.3-0.6-1-1.1-1.9-0.9
		c-0.2,0-0.4,0.1-0.5,0.1l0,0c0,0,0,0-0.1,0c-0.4,0.1-0.8,0.2-1.3,0.3c-4.2,0-8.4,1.5-13.1,0.8c-0.4-0.1-0.7,0-1,0.1
		c-17-16.1-34.4-31.8-51.7-47.5c-13.9-12.6-27.9-25.2-42-37.6C56.7,60.3,44,47.7,30,37.4c0,0,0-0.1,0-0.1c7.6,0.6,15.2,1,22.8,1.4
		c2.2,0.1,2.8-3.4,0.8-4.1C37.8,28.3,22.8,20.5,8.7,10.9C7.2,9.9,4.1,11,5.2,13.3z"/>
</g>
</svg>
